<svg xmlns="http://www.w3.org/2000/svg" version="1.1" xmlns:xlink="http://www.w3.org/1999/xlink" xmlns:svgjs="http://svgjs.dev/svgjs" width="1440" height="560" preserveAspectRatio="none" viewBox="0 0 1440 560"><g mask="url(&quot;#SvgjsMask1003&quot;)" fill="none"><rect width="1440" height="560" x="0" y="0" fill="rgba(21, 67, 96, 1)"></rect><path d="M0,555.309C102.74,547.136,140.251,408.385,230.705,358.984C332.23,303.536,498.521,354.534,553.74,252.884C607.699,153.552,502.687,38.987,461.78,-66.394C429.899,-148.522,398.817,-229.006,340.904,-295.395C283.139,-361.614,216.281,-425.042,130.876,-445.724C47.104,-466.011,-37.274,-432.82,-119.472,-406.883C-200.114,-381.438,-283.346,-357.243,-342.143,-296.469C-402.649,-233.928,-435.106,-150.421,-450.455,-64.766C-466.185,23.018,-465.133,114.42,-430.498,196.602C-395.284,280.159,-325.227,339.624,-255.566,397.668C-177.081,463.065,-101.838,563.411,0,555.309" fill="#11364d"></path><path d="M1440 1109.117C1541.859 1108.336 1586.548 976.105 1668.784 915.995 1744.275 860.815 1850.866 849.204 1902.363 771.154 1956.54 689.042 1964.348 583.977 1952.261 486.348 1940.026 387.524 1912.409 279.962 1833.9560000000001 218.635 1757.778 159.086 1648.78 189.151 1553.218 174.41500000000002 1472.67 161.99400000000003 1397.823 137.81099999999998 1316.329 138.81599999999997 1208.712 140.144 1085.975 112.84699999999998 1002.847 181.20499999999998 919.16 250.02300000000002 892.768 374.001 898.773 482.183 904.354 582.715 975.914 663.211 1034.163 745.3389999999999 1082.731 813.817 1146.436 863.483 1208.951 919.519 1284.671 987.392 1338.316 1109.896 1440 1109.117" fill="#195073"></path></g><defs><mask id="SvgjsMask1003"><rect width="1440" height="560" fill="#ffffff"></rect></mask></defs></svg>